# xmcd
#
# Track frame offsets:
#	150
#	14978
#	30745
#	47350
#	62552
#	76766
#	92397
#	107791
#	123572
#	141443
#	157450
#	172385
#	187785
#	202729
#	220748
#	234375
#	249431
#	262655
#	276542
#	290813
#
# Disc length: 4072 seconds
#
# Revision: 2
# Processed by: cddbd v1.5.2PL0 Copyright (c) Steve Scherf et al.
# Submitted via: audiograbber 1.83.01
#
DISCID=240fe614
DTITLE=MDR Schlagercharts - MDR Schlagercharts Folge 6 - CD 2 (LC 08744)
DYEAR=2008
DGENRE=djjensn.de
TTITLE0=G.G. Andersen - Du bist die Sonne
TTITLE1=Andrea Jürgens - Verbotene Träume
TTITLE2=Olaf Berger - Schatten an der Wand
TTITLE3=Susan Schubert - Mit dem Albatross nach Süden
TTITLE4=Matthias Carras - auch nur ein Mann
TTITLE5=Jörg Bausch - Grosses Kino (Party Version)
TTITLE6=Juliane Werding - Unsichtbar
TTITLE7=Michael Heck - Windsurfer (Ich will frei sein)
TTITLE8=Guido Hoffmann - Gib mir einen Grund (Version 2008)
TTITLE9=Xandra Hag - Ich nehm dein Bild in meine Hand
TTITLE10=Bata Illic - Wie ein Liebeslied
TTITLE11=Atlantis - Beim zweiten mal war's Liebe
TTITLE12=Sina Lenz - Wenn es Sommer wird (Radio Version)
TTITLE13=Leonard - Fliegen ohne Flugel
TTITLE14=Peter Ehrlicher - Mitten im Sommer
TTITLE15=Linda Feller - Mit mir da machst du keinen Fehler (Album Verson)
TTITLE16=Tommy Zanko - Dieser Sommer mit dir (Radio Edit)
TTITLE17=Nicole Freytag - Wo keine Rosen sind
TTITLE18=Andreas Zaron - Sommerhit
TTITLE19=Matthias Sagorski - Viva La Vida (Küß mich zum Himmel)
EXTD=
EXTT0=
EXTT1=
EXTT2=
EXTT3=
EXTT4=
EXTT5=
EXTT6=
EXTT7=
EXTT8=
EXTT9=
EXTT10=
EXTT11=
EXTT12=
EXTT13=
EXTT14=
EXTT15=
EXTT16=
EXTT17=
EXTT18=
EXTT19=
PLAYORDER=
